<svg xmlns="http://www.w3.org/2000/svg" width="1200" height="420" viewBox="0 0 1200 420" role="img" aria-label="Media Horde AMP banner">
  <defs>
    <linearGradient id="bg" x1="0" x2="0" y1="0" y2="1">
      <stop offset="0%" stop-color="#1e3a8a"/>
      <stop offset="55%" stop-color="#0f172a"/>
      <stop offset="100%" stop-color="#09070f"/>
    </linearGradient>
    <linearGradient id="panel" x1="0" x2="1">
      <stop offset="0%" stop-color="#111827" stop-opacity="0.95"/>
      <stop offset="100%" stop-color="#0f172a" stop-opacity="0.95"/>
    </linearGradient>
    <linearGradient id="accent" x1="0" x2="1">
      <stop offset="0%" stop-color="#38bdf8"/>
      <stop offset="100%" stop-color="#7dd3fc"/>
    </linearGradient>
  </defs>
  <rect width="1200" height="420" fill="url(#bg)"/>
  <circle cx="1040" cy="96" r="160" fill="#38bdf8" opacity="0.08"/>
  <circle cx="180" cy="70" r="140" fill="#a855f7" opacity="0.08"/>

  <rect x="60" y="80" width="1080" height="260" rx="26" fill="url(#panel)" stroke="#334155"/>
  <rect x="94" y="114" width="270" height="192" rx="18" fill="#0b1120" stroke="#475569"/>
  <rect x="118" y="138" width="220" height="18" rx="9" fill="#1f2937"/>
  <rect x="118" y="172" width="196" height="18" rx="9" fill="#1f2937"/>
  <rect x="118" y="206" width="170" height="18" rx="9" fill="#1f2937"/>
  <rect x="118" y="240" width="200" height="18" rx="9" fill="#1f2937"/>

  <rect x="404" y="114" width="314" height="192" rx="18" fill="#020617" stroke="#475569"/>
  <rect x="430" y="138" width="262" height="140" rx="14" fill="#06131a" stroke="#1e293b"/>
  <g fill="url(#accent)">
    <rect x="448" y="228" width="14" height="34" rx="4"/>
    <rect x="470" y="208" width="14" height="54" rx="4"/>
    <rect x="492" y="188" width="14" height="74" rx="4"/>
    <rect x="514" y="165" width="14" height="97" rx="4"/>
    <rect x="536" y="176" width="14" height="86" rx="4"/>
    <rect x="558" y="150" width="14" height="112" rx="4"/>
    <rect x="580" y="184" width="14" height="78" rx="4"/>
    <rect x="602" y="202" width="14" height="60" rx="4"/>
    <rect x="624" y="220" width="14" height="42" rx="4"/>
  </g>

  <rect x="754" y="114" width="340" height="192" rx="18" fill="#0b1120" stroke="#475569"/>
  <rect x="780" y="144" width="288" height="30" rx="15" fill="#111827" stroke="#334155"/>
  <rect x="780" y="188" width="182" height="22" rx="11" fill="#10192a" stroke="#334155"/>
  <rect x="972" y="188" width="96" height="22" rx="11" fill="#0f172a" stroke="#334155"/>
  <rect x="780" y="224" width="288" height="22" rx="11" fill="#10192a" stroke="#334155"/>
  <rect x="780" y="260" width="210" height="22" rx="11" fill="#10192a" stroke="#334155"/>

  <text x="404" y="88" font-family="Tahoma, Segoe UI, sans-serif" font-size="18" fill="#bae6fd" letter-spacing="3">OFFLINE MEDIA LAUNCHER</text>
  <text x="404" y="344" font-family="Tahoma, Segoe UI, sans-serif" font-size="46" font-weight="700" fill="#f8fafc">MEDIA HORDE AMP</text>
  <text x="404" y="380" font-family="Tahoma, Segoe UI, sans-serif" font-size="22" fill="#cbd5e1">playlist.txt powered • GitHub-ready • audio, video, HTML</text>
</svg>
